<?xml version="1.0" encoding="UTF-8"?>
<svg id="Layer_1" data-name="Layer 1" xmlns="http://www.w3.org/2000/svg" viewBox="0 0 1284 110.14">
  <defs>
    <style>
      .cls-1 {
        fill: #7100ce;
      }

      .cls-2 {
        fill: lime;
      }

      .cls-3 {
        fill: #bf00bf;
      }

      .cls-4 {
        fill: blue;
      }

      .cls-5 {
        fill: #fff;
      }

      .cls-6 {
        fill: #ff0;
      }

      .cls-7 {
        fill: red;
      }

      .cls-8 {
        fill: aqua;
      }
    </style>
  </defs>
  <path class="cls-5" d="M23.63,0l45.15,72.57h.3V0h22.27v108.17h-23.79L22.57,35.76h-.3v72.42H0V0h23.63Z"/>
  <path class="cls-5" d="M125.45,89.39c3.23,3.13,7.88,4.7,13.94,4.7,4.34,0,8.08-1.08,11.21-3.26,3.13-2.17,5.05-4.47,5.76-6.89h18.94c-3.03,9.39-7.68,16.11-13.94,20.15-6.26,4.04-13.84,6.06-22.73,6.06-6.16,0-11.72-.98-16.67-2.95-4.95-1.97-9.14-4.77-12.57-8.41-3.44-3.64-6.09-7.98-7.95-13.03-1.87-5.05-2.8-10.6-2.8-16.67s.96-11.31,2.88-16.36c1.92-5.05,4.64-9.42,8.18-13.11,3.53-3.69,7.75-6.59,12.65-8.71,4.9-2.12,10.33-3.18,16.29-3.18,6.67,0,12.47,1.29,17.42,3.86,4.95,2.58,9.01,6.04,12.2,10.38,3.18,4.34,5.48,9.29,6.89,14.85,1.41,5.56,1.92,11.36,1.51,17.42h-56.51c.3,6.97,2.07,12.02,5.3,15.15ZM149.76,48.18c-2.58-2.83-6.49-4.24-11.74-4.24-3.44,0-6.29.58-8.56,1.74-2.27,1.16-4.09,2.6-5.45,4.32-1.36,1.72-2.33,3.54-2.88,5.46-.56,1.92-.89,3.64-.98,5.15h35c-1.01-5.45-2.8-9.59-5.38-12.42Z"/>
  <path class="cls-5" d="M249.22,108.17l-13.94-52.57h-.3l-13.33,52.57h-22.27l-24.85-78.33h22.73l14.39,53.18h.3l13.03-53.18h20.91l13.33,53.03h.3l14.39-53.03h22.12l-24.7,78.33h-22.12Z"/>
  <path class="cls-5" d="M322.7,0h26.66l25.3,42.72L399.82,0h26.51l-40.15,66.66v41.51h-23.79v-42.12L322.7,0Z"/>
  <path class="cls-5" d="M409.21,52.04c1.92-5.1,4.64-9.44,8.18-13.03,3.53-3.58,7.78-6.36,12.73-8.33,4.95-1.97,10.5-2.95,16.67-2.95s11.74.99,16.74,2.95c5,1.97,9.27,4.75,12.8,8.33,3.53,3.59,6.26,7.93,8.18,13.03,1.92,5.1,2.88,10.78,2.88,17.04s-.96,11.92-2.88,16.97c-1.92,5.05-4.65,9.37-8.18,12.95-3.54,3.59-7.8,6.34-12.8,8.26-5,1.92-10.58,2.88-16.74,2.88s-11.72-.96-16.67-2.88c-4.95-1.92-9.19-4.67-12.73-8.26-3.54-3.58-6.26-7.9-8.18-12.95-1.92-5.05-2.88-10.71-2.88-16.97s.96-11.94,2.88-17.04ZM428.76,78.25c.61,2.98,1.64,5.66,3.11,8.03,1.46,2.37,3.41,4.27,5.83,5.68,2.42,1.41,5.45,2.12,9.09,2.12s6.69-.71,9.17-2.12c2.47-1.41,4.44-3.31,5.91-5.68,1.46-2.37,2.5-5.05,3.11-8.03.61-2.98.91-6.03.91-9.17s-.3-6.21-.91-9.24-1.64-5.7-3.11-8.03c-1.47-2.32-3.44-4.22-5.91-5.68-2.48-1.46-5.53-2.2-9.17-2.2s-6.67.73-9.09,2.2c-2.42,1.46-4.37,3.36-5.83,5.68-1.47,2.32-2.5,5-3.11,8.03-.61,3.03-.91,6.11-.91,9.24s.3,6.19.91,9.17Z"/>
  <path class="cls-5" d="M514.21,29.85v14.54h.3c1.01-2.42,2.37-4.67,4.09-6.74,1.72-2.07,3.69-3.84,5.91-5.3,2.22-1.46,4.59-2.6,7.12-3.41,2.52-.81,5.15-1.21,7.88-1.21,1.41,0,2.98.25,4.7.76v20c-1.01-.2-2.22-.38-3.64-.53-1.42-.15-2.78-.23-4.09-.23-3.94,0-7.27.66-10,1.97-2.73,1.31-4.92,3.11-6.59,5.38-1.67,2.27-2.85,4.92-3.56,7.95-.71,3.03-1.06,6.31-1.06,9.85v35.3h-21.51V29.85h20.45Z"/>
  <path class="cls-5" d="M568.6,0v58.03l27.12-28.18h25.45l-29.54,28.79,32.88,49.54h-26.06l-21.51-35-8.33,8.03v26.97h-21.51V0h21.51Z"/>
  <path class="cls-7" d="M652.83,20V0h88.63v20h-32.42v88.18h-23.79V20h-32.42Z"/>
  <path class="cls-6" d="M750.25,89.39c3.23,3.13,7.88,4.7,13.94,4.7,4.34,0,8.08-1.08,11.21-3.26,3.13-2.17,5.05-4.47,5.76-6.89h18.94c-3.03,9.39-7.68,16.11-13.94,20.15-6.26,4.04-13.84,6.06-22.73,6.06-6.16,0-11.72-.98-16.67-2.95s-9.14-4.77-12.57-8.41c-3.43-3.64-6.09-7.98-7.95-13.03-1.87-5.05-2.8-10.6-2.8-16.67s.96-11.31,2.88-16.36c1.92-5.05,4.65-9.42,8.18-13.11,3.53-3.69,7.75-6.59,12.65-8.71,4.9-2.12,10.33-3.18,16.29-3.18,6.67,0,12.47,1.29,17.42,3.86,4.95,2.58,9.01,6.04,12.2,10.38,3.18,4.34,5.48,9.29,6.89,14.85,1.41,5.56,1.92,11.36,1.51,17.42h-56.51c.3,6.97,2.07,12.02,5.3,15.15ZM774.57,48.18c-2.58-2.83-6.49-4.24-11.74-4.24-3.43,0-6.29.58-8.56,1.74-2.27,1.16-4.09,2.6-5.46,4.32-1.36,1.72-2.32,3.54-2.88,5.46-.56,1.92-.89,3.64-.99,5.15h35c-1.01-5.45-2.8-9.59-5.38-12.42Z"/>
  <path class="cls-2" d="M828.73,0v108.17h-21.51V0h21.51Z"/>
  <path class="cls-8" d="M861.15,89.39c3.23,3.13,7.88,4.7,13.94,4.7,4.34,0,8.08-1.08,11.21-3.26,3.13-2.17,5.05-4.47,5.76-6.89h18.94c-3.03,9.39-7.68,16.11-13.94,20.15-6.26,4.04-13.84,6.06-22.73,6.06-6.16,0-11.72-.98-16.67-2.95s-9.14-4.77-12.57-8.41c-3.43-3.64-6.09-7.98-7.95-13.03-1.87-5.05-2.8-10.6-2.8-16.67s.96-11.31,2.88-16.36c1.92-5.05,4.65-9.42,8.18-13.11,3.53-3.69,7.75-6.59,12.65-8.71,4.9-2.12,10.33-3.18,16.29-3.18,6.67,0,12.47,1.29,17.42,3.86,4.95,2.58,9.01,6.04,12.2,10.38,3.18,4.34,5.48,9.29,6.89,14.85,1.41,5.56,1.92,11.36,1.51,17.42h-56.51c.3,6.97,2.07,12.02,5.3,15.15ZM885.47,48.18c-2.58-2.83-6.49-4.24-11.74-4.24-3.43,0-6.29.58-8.56,1.74-2.27,1.16-4.09,2.6-5.46,4.32-1.36,1.72-2.32,3.54-2.88,5.46-.56,1.92-.89,3.64-.99,5.15h35c-1.01-5.45-2.8-9.59-5.38-12.42Z"/>
  <path class="cls-4" d="M936.9,108.17l-26.82-78.33h22.57l16.51,53.48h.3l16.51-53.48h21.36l-26.51,78.33h-23.94Z"/>
  <path class="cls-1" d="M989.32,17.73V0h21.51v17.73h-21.51ZM1010.84,29.85v78.33h-21.51V29.85h21.51Z"/>
  <path class="cls-3" d="M1038.34,88.71c.96,1.67,2.2,3.03,3.71,4.09,1.52,1.06,3.26,1.84,5.23,2.35,1.97.51,4.01.76,6.13.76,1.52,0,3.11-.17,4.77-.53,1.67-.35,3.18-.91,4.54-1.67,1.36-.76,2.5-1.77,3.41-3.03.91-1.26,1.36-2.85,1.36-4.77,0-3.23-2.15-5.66-6.44-7.27-4.29-1.61-10.28-3.23-17.95-4.85-3.13-.71-6.19-1.54-9.17-2.5-2.98-.96-5.63-2.22-7.95-3.79-2.32-1.56-4.19-3.53-5.61-5.91-1.42-2.37-2.12-5.28-2.12-8.71,0-5.05.99-9.19,2.96-12.42,1.97-3.23,4.57-5.78,7.8-7.65,3.23-1.87,6.87-3.18,10.91-3.94,4.04-.76,8.18-1.14,12.42-1.14s8.36.41,12.35,1.21c3.99.81,7.55,2.17,10.68,4.09,3.13,1.92,5.73,4.47,7.8,7.65,2.07,3.18,3.31,7.2,3.71,12.04h-20.45c-.3-4.14-1.87-6.94-4.7-8.41-2.83-1.46-6.16-2.2-10-2.2-1.21,0-2.53.08-3.94.23-1.42.15-2.7.48-3.86.99-1.16.51-2.15,1.24-2.95,2.2-.81.96-1.21,2.25-1.21,3.86,0,1.92.71,3.48,2.12,4.7,1.41,1.21,3.26,2.2,5.53,2.96,2.27.76,4.87,1.44,7.8,2.05,2.93.61,5.91,1.26,8.94,1.97,3.13.71,6.19,1.57,9.17,2.58,2.98,1.01,5.63,2.35,7.95,4.02,2.32,1.67,4.19,3.74,5.61,6.21,1.41,2.48,2.12,5.53,2.12,9.17,0,5.15-1.04,9.47-3.11,12.95-2.07,3.48-4.77,6.29-8.11,8.41-3.33,2.12-7.15,3.61-11.44,4.47-4.29.86-8.66,1.29-13.11,1.29s-8.99-.45-13.33-1.36c-4.34-.91-8.21-2.42-11.59-4.55-3.39-2.12-6.16-4.92-8.33-8.41-2.17-3.48-3.36-7.85-3.56-13.11h20.45c0,2.33.48,4.32,1.44,5.98Z"/>
  <path class="cls-7" d="M1094.62,17.73V0h21.51v17.73h-21.51ZM1116.13,29.85v78.33h-21.51V29.85h21.51Z"/>
  <path class="cls-6" d="M1125.98,52.04c1.92-5.1,4.65-9.44,8.18-13.03,3.53-3.58,7.78-6.36,12.73-8.33,4.95-1.97,10.5-2.95,16.66-2.95s11.74.99,16.74,2.95c5,1.97,9.27,4.75,12.8,8.33,3.53,3.59,6.26,7.93,8.18,13.03,1.92,5.1,2.88,10.78,2.88,17.04s-.96,11.92-2.88,16.97c-1.92,5.05-4.65,9.37-8.18,12.95-3.54,3.59-7.8,6.34-12.8,8.26-5,1.92-10.58,2.88-16.74,2.88s-11.72-.96-16.66-2.88c-4.95-1.92-9.19-4.67-12.73-8.26-3.54-3.58-6.26-7.9-8.18-12.95-1.92-5.05-2.88-10.71-2.88-16.97s.96-11.94,2.88-17.04ZM1145.52,78.25c.61,2.98,1.64,5.66,3.11,8.03,1.46,2.37,3.41,4.27,5.83,5.68,2.42,1.41,5.45,2.12,9.09,2.12s6.69-.71,9.17-2.12c2.47-1.41,4.44-3.31,5.91-5.68,1.46-2.37,2.5-5.05,3.11-8.03.61-2.98.91-6.03.91-9.17s-.3-6.21-.91-9.24c-.61-3.03-1.64-5.7-3.11-8.03-1.47-2.32-3.43-4.22-5.91-5.68-2.48-1.46-5.53-2.2-9.17-2.2s-6.67.73-9.09,2.2c-2.42,1.46-4.37,3.36-5.83,5.68-1.47,2.32-2.5,5-3.11,8.03s-.91,6.11-.91,9.24.3,6.19.91,9.17Z"/>
  <path class="cls-2" d="M1230.97,29.85v10.91h.45c2.73-4.54,6.26-7.85,10.61-9.92,4.34-2.07,8.79-3.11,13.33-3.11,5.76,0,10.48.78,14.17,2.35,3.69,1.57,6.59,3.74,8.71,6.51,2.12,2.78,3.61,6.16,4.47,10.15.86,3.99,1.29,8.41,1.29,13.26v48.18h-21.51v-44.24c0-6.46-1.01-11.29-3.03-14.47-2.02-3.18-5.61-4.77-10.76-4.77-5.86,0-10.1,1.74-12.73,5.23-2.63,3.48-3.94,9.22-3.94,17.2v41.06h-21.51V29.85h20.45Z"/>
</svg>