<?xml version="1.0" encoding="utf-8"?>
<svg xmlns="http://www.w3.org/2000/svg" width="268" height="43" viewBox="0 0 268 43" fill="none">
<path d="M37.5399 9.90995C31.5536 9.90994 26.7008 14.7805 26.7008 20.789C26.7008 26.7974 31.5536 31.668 37.5399 31.668C43.5261 31.668 48.3789 26.7974 48.3789 20.789C48.3789 14.7805 43.5261 9.90995 37.5399 9.90995Z" fill="url(#paint0_linear_6309_356)"/>
<mask id="mask0_6309_356" style="mask-type:luminance" maskUnits="userSpaceOnUse" x="0" y="0" width="26" height="43">
<path d="M0.000122249 42.6426L25.9824 42.6426L25.9824 0.00136256L0.000125977 0.00136029L0.000122249 42.6426Z" fill="white"/>
</mask>
<g mask="url(#mask0_6309_356)">
<path d="M21.0391 0.224643C9.32577 0.224642 -0.169884 9.7203 -0.169885 21.4336C-0.169886 33.1469 9.32577 42.6426 21.0391 42.6426C32.7525 42.6426 42.248 33.1469 42.248 21.4336C42.248 9.7203 32.7525 0.224644 21.0391 0.224643Z" fill="url(#paint1_linear_6309_356)"/>
</g>
<path d="M63.9082 36.9228V7.60352H73.0908C73.3623 7.60352 73.8645 7.6103 74.5975 7.62388C75.3441 7.63745 76.0567 7.69174 76.7354 7.78676C79.0294 8.07181 80.9568 8.89302 82.5178 10.2504C84.0924 11.6078 85.2801 13.3316 86.0809 15.422C86.8818 17.4988 87.2822 19.7792 87.2822 22.2632C87.2822 24.7607 86.8818 27.0547 86.0809 29.145C85.2801 31.2218 84.0924 32.9389 82.5178 34.2963C80.9568 35.6401 79.0294 36.4545 76.7354 36.7395C76.0567 36.8346 75.3441 36.8889 74.5975 36.9024C73.8645 36.916 73.3623 36.9228 73.0908 36.9228H63.9082ZM68.2654 32.871H73.0908C73.5523 32.871 74.1021 32.8575 74.74 32.8303C75.378 32.8032 75.9413 32.7489 76.43 32.6674C77.9231 32.3824 79.1312 31.7376 80.0542 30.7332C80.9908 29.7151 81.6762 28.4664 82.1106 26.9868C82.545 25.5073 82.7621 23.9327 82.7621 22.2632C82.7621 20.5393 82.5382 18.9444 82.0902 17.4784C81.6423 15.9989 80.95 14.7637 80.0134 13.7728C79.0904 12.7683 77.8959 12.1304 76.43 11.8589C75.9413 11.7639 75.3712 11.7096 74.7197 11.696C74.0817 11.6689 73.5388 11.6553 73.0908 11.6553H68.2654V32.871Z" fill="white"/>
<path d="M88.3775 36.9228L97.9063 7.60352H104.035L113.564 36.9228H109.145L100.37 10.169H101.469L92.7958 36.9228H88.3775ZM93.3251 30.3056V26.3149H108.636V30.3056H93.3251Z" fill="white"/>
<path d="M121.041 36.9228V24.8082L111.126 7.60352H116.094L123.2 19.9217L130.305 7.60352H135.273L125.358 24.8082V36.9228H121.041Z" fill="white"/>
<path d="M137.3 36.9228V7.60352H146.483C146.754 7.60352 147.257 7.6103 147.99 7.62388C148.736 7.63745 149.449 7.69174 150.127 7.78676C152.421 8.07181 154.349 8.89302 155.91 10.2504C157.484 11.6078 158.672 13.3316 159.473 15.422C160.274 17.4988 160.674 19.7792 160.674 22.2632C160.674 24.7607 160.274 27.0547 159.473 29.145C158.672 31.2218 157.484 32.9389 155.91 34.2963C154.349 35.6401 152.421 36.4545 150.127 36.7395C149.449 36.8346 148.736 36.8889 147.99 36.9024C147.257 36.916 146.754 36.9228 146.483 36.9228H137.3ZM141.657 32.871H146.483C146.944 32.871 147.494 32.8575 148.132 32.8303C148.77 32.8032 149.333 32.7489 149.822 32.6674C151.315 32.3824 152.523 31.7376 153.446 30.7332C154.383 29.7151 155.068 28.4664 155.503 26.9868C155.937 25.5073 156.154 23.9327 156.154 22.2632C156.154 20.5393 155.93 18.9444 155.482 17.4784C155.034 15.9989 154.342 14.7637 153.405 13.7728C152.482 12.7683 151.288 12.1304 149.822 11.8589C149.333 11.7639 148.763 11.7096 148.112 11.696C147.474 11.6689 146.931 11.6553 146.483 11.6553H141.657V32.871Z" fill="white"/>
<path d="M164.601 36.9228V7.60352H176.451C176.736 7.60352 177.089 7.61709 177.51 7.64424C177.93 7.65781 178.331 7.69853 178.711 7.7664C180.34 8.0243 181.697 8.58082 182.783 9.43597C183.882 10.2911 184.704 11.3702 185.247 12.6733C185.79 13.9764 186.061 15.4152 186.061 16.9898C186.061 19.3244 185.464 21.3401 184.269 23.0369C183.075 24.72 181.283 25.772 178.894 26.1928L177.163 26.3964H168.856V36.9228H164.601ZM181.745 36.9228L175.962 24.9915L180.258 23.892L186.611 36.9228H181.745ZM168.856 22.365H176.288C176.559 22.365 176.858 22.3514 177.184 22.3242C177.523 22.2971 177.842 22.2496 178.141 22.1817C179.009 21.9781 179.709 21.6048 180.238 21.0619C180.767 20.5054 181.147 19.8674 181.378 19.148C181.609 18.4286 181.724 17.7092 181.724 16.9898C181.724 16.2703 181.609 15.5577 181.378 14.8519C181.147 14.1325 180.767 13.5013 180.238 12.9584C179.709 12.4018 179.009 12.0218 178.141 11.8182C177.842 11.7367 177.523 11.6824 177.184 11.6553C176.858 11.6281 176.559 11.6146 176.288 11.6146H168.856V22.365Z" fill="white"/>
<path d="M190.271 36.9228V7.60352H209.003V11.6146H194.527V19.8402H206.56V23.8513H194.527V32.9118H209.003V36.9228H190.271Z" fill="white"/>
<path d="M211.042 36.9228L220.571 7.60352H226.7L236.228 36.9228H231.81L223.035 10.169H224.134L215.46 36.9228H211.042ZM215.99 30.3056V26.3149H231.301V30.3056H215.99Z" fill="white"/>
<path d="M239.067 36.9228V7.60352H242.915L253.543 29.6541L264.11 7.60352H267.999V36.9024H263.968V16.8472L254.5 36.9228H252.566L243.078 16.8472V36.9228H239.067Z" fill="white"/>
<defs>
<linearGradient id="paint0_linear_6309_356" x1="37.0718" y1="9.90995" x2="37.0386" y2="30.4335" gradientUnits="userSpaceOnUse">
<stop offset="0.00113772" stop-color="#36619D"/>
<stop offset="0.210396" stop-color="#2FBEC5"/>
<stop offset="0.722843" stop-color="#FF982E"/>
<stop offset="0.988296" stop-color="#F73B41"/>
</linearGradient>
<linearGradient id="paint1_linear_6309_356" x1="20.1232" y1="0.224644" x2="20.0588" y2="40.2359" gradientUnits="userSpaceOnUse">
<stop offset="0.00113772" stop-color="#36619D"/>
<stop offset="0.210396" stop-color="#2FBEC5"/>
<stop offset="0.722843" stop-color="#FF982E"/>
<stop offset="0.988296" stop-color="#F73B41"/>
</linearGradient>
</defs>
</svg>