<?xml version="1.0" encoding="UTF-8" standalone="no"?>
<!DOCTYPE svg PUBLIC "-//W3C//DTD SVG 1.1//EN" "http://www.w3.org/Graphics/SVG/1.1/DTD/svg11.dtd">
<svg width="100%" height="100%" viewBox="0 0 8984 1934" version="1.1" xmlns="http://www.w3.org/2000/svg" xmlns:xlink="http://www.w3.org/1999/xlink" xml:space="preserve" xmlns:serif="http://www.serif.com/" style="fill-rule:evenodd;clip-rule:evenodd;stroke-linejoin:round;stroke-miterlimit:2;">
    <g transform="matrix(5.55556,0,0,5.55556,25.6811,19.04)">
        <g>
            <g transform="matrix(1,0,0,1,-217.125,-368.902)">
                <path d="M488.82,596.09C489.36,595.2 489.89,594.31 490.41,593.41C490.5,593.25 490.59,593.09 490.68,592.93C499.43,577.56 504.8,560.03 505.8,541.33C505.82,541.05 505.83,540.77 505.85,540.49C505.88,539.79 505.91,539.09 505.93,538.38C505.96,537.46 505.97,536.54 505.98,535.61C505.98,535.41 505.99,535.2 505.99,535L505.99,534.72C505.99,469.43 453.06,416.51 387.78,416.51C322.5,416.51 269.57,469.44 269.57,534.72C269.57,582.95 298.45,624.43 339.86,642.81C342.17,641.83 344.82,641.6 347.6,642.5C347.71,642.48 348.06,642.58 348.8,642.93C349.87,642.59 351.08,642.46 352.17,642.22C354.63,641.68 357.12,641.33 359.58,640.81C365.15,639.64 370.59,637.89 376.16,636.73C382.32,635.45 388.69,638.46 390.44,644.84C391.16,647.46 390.81,650.38 389.65,652.91C430.42,652.28 466.17,631.01 486.93,599.09C487.1,598.83 487.27,598.57 487.44,598.31C487.91,597.57 488.37,596.83 488.83,596.09L488.82,596.09Z" style="fill:rgb(26,26,26);fill-rule:nonzero;"/>
            </g>
            <g transform="matrix(1,0,0,1,-217.125,-368.902)">
                <path d="M398.87,484.2L399.88,505.89L410.28,509.55L395.52,509.55L394.43,479.48L415.2,479.48L398.87,484.2Z" style="fill:rgb(77,77,77);fill-rule:nonzero;"/>
            </g>
            <g transform="matrix(1,0,0,1,-217.125,-368.902)">
                <path d="M407.52,632.43L407.52,632.37L405.83,567.81L405.91,560.75L420.81,555.3L399.31,556L402.95,630.22C404.49,630.89 406.02,631.62 407.53,632.42L407.52,632.43Z" style="fill:rgb(77,77,77);fill-rule:nonzero;"/>
            </g>
            <g transform="matrix(1,0,0,1,-217.125,-368.902)">
                <path d="M315.75,435.86L315.75,445.19C315.75,445.19 343.09,444.1 343.09,467.32L343.09,491.12L366.17,476.2L467.27,476.2C473.14,476.2 478.98,477.27 484.41,479.5C489.4,481.55 494.15,484.61 494.15,488.82L494.15,442.41L406.24,442.41L406.24,435.92L315.75,435.86Z" style="fill:rgb(242,242,242);fill-rule:nonzero;"/>
                <path d="M384.52,549.53C383,549.84 374.5,554.81 372.41,555.99C361.06,562.39 350.66,570.29 340.56,578.47L343.55,511.3C357.29,499.76 372.89,489.71 389.69,483.46L391.34,511.85L380.41,515.68L465.05,515.68L465.05,549.54L384.51,549.54L384.52,549.53Z" style="fill:rgb(242,242,242);fill-rule:nonzero;"/>
                <path d="M384.62,620.15C386.3,618.47 388.78,617.44 391.15,617.44C392.32,617.44 393.42,617.66 394.43,618.05L391.53,561.24C376.44,568.54 361.62,576.78 348.45,587.23C346.53,588.75 339.44,594.3 338.53,595.88C338.16,596.53 338.08,596.77 337.99,597.52C336.15,611.29 341.68,626.24 327.48,635.06C325.4,636.35 322.28,637.18 320.41,638.36C319.72,638.79 319.26,638.87 319.46,639.87L357.68,640.77L357.68,621.03C357.68,620.82 358.79,618.46 359.07,618.05C362,613.76 368.64,613.05 372.45,616.63C373.18,617.32 375.15,620.84 375.15,621.57L375.15,626.68C376.32,626.01 377.56,625.46 378.87,625.04C380.03,624.43 381.23,623.94 382.45,623.58C382.94,622.27 383.71,621.04 384.62,620.14L384.62,620.15Z" style="fill:rgb(242,242,242);fill-rule:nonzero;"/>
            </g>
            <g transform="matrix(1,0,0,1,-217.125,-368.902)">
                <rect x="336.59" y="428.82" width="55.13" height="8.66" style="fill:rgb(242,242,242);"/>
            </g>
            <g transform="matrix(1,0,0,1,-217.125,-368.902)">
                <path d="M370.43,405.41L381.28,405.41L381.28,428.82L347.02,428.82C347.02,415.9 357.51,405.41 370.43,405.41Z" style="fill:rgb(242,242,242);fill-rule:nonzero;"/>
            </g>
            <g transform="matrix(1,0,0,1,-217.125,-368.902)">
                <path d="M375.15,621.59L375.15,646.4L399.31,643.32L393.82,606.12" style="fill:rgb(242,242,242);fill-rule:nonzero;"/>
            </g>
            <g transform="matrix(1,0,0,1,-217.125,-368.902)">
                <path d="M434.95,641.77C427.45,636.79 420.54,630.98 414.13,624.68C378.86,650.1 331.68,660.51 289.92,645.24C276.7,656.38 260.2,663.03 243.21,666.13C245.28,668.42 247.17,670.85 249,673.36C259.11,673.75 269.41,673.79 279.47,672.94C316.6,669.77 351.78,651.88 389.38,653.26C420.31,654.4 448.46,670.95 479.26,673.24C493.74,674.31 510.78,671.04 524.28,665.72C524.6,665.6 525.17,665.63 525.1,665.2C493.55,667.12 461.22,659.22 434.94,641.78L434.95,641.77Z" style="fill:rgb(242,242,242);fill-rule:nonzero;"/>
                <path d="M431.64,681.28C431.71,681.82 430.99,681.55 430.67,681.5C428.7,681.19 426.49,680.36 424.48,679.92C400.81,674.72 375.35,672.69 351.2,675.65C341.11,676.89 331.28,679.62 321.24,681.22C300.45,684.53 278.62,685.74 257.83,682.01C273.85,682.14 289.66,680.16 305.21,676.54C319.99,673.09 334.95,667.38 350.01,665.52C377.55,662.11 406.29,671.7 431.64,681.28Z" style="fill:rgb(242,242,242);fill-rule:nonzero;"/>
                <path d="M376.31,636.41L367.67,639.94C342.05,648.2 314.13,646.84 288.76,638.37C280.1,644.46 271.14,650.64 260.82,653.56L267.06,649.22C276.19,642.22 285.08,634.65 291.47,624.98C294.79,626.43 297.92,628.31 301.23,629.78C323.76,639.82 352.12,642.31 376.31,636.41Z" style="fill:rgb(242,242,242);fill-rule:nonzero;"/>
                <path d="M496.44,679.79L493.62,680.99C455.11,696.09 422.32,666.01 385.12,661.7L374.61,660.13C397.05,658.33 419.03,663.62 440.24,670.18C445.86,671.92 451.4,674.13 457.03,675.77C469.67,679.46 483.33,681.19 496.45,679.8L496.44,679.79Z" style="fill:rgb(242,242,242);fill-rule:nonzero;"/>
                <path d="M502.72,658.04L499.89,658.33C480.42,655.87 461.58,649.56 444.59,639.91C442.86,638.93 440.96,637.83 439.42,636.58C447.9,638.94 456.77,635.92 464.33,632.12C472.21,646.13 487.36,654.62 502.73,658.03L502.72,658.04Z" style="fill:rgb(242,242,242);fill-rule:nonzero;"/>
                <path d="M440,690.82C440.07,691.36 439.35,691.09 439.03,691.04C435.69,690.51 432.35,689.64 429.02,689.11C398.16,684.21 366.77,684.02 335.64,686.06C335.32,686.08 334.23,686.27 334.29,685.75C369.06,676.79 406.04,680.41 440,690.82Z" style="fill:rgb(242,242,242);fill-rule:nonzero;"/>
            </g>
            <g transform="matrix(1,0,0,1,-217.125,-368.902)">
                <path d="M675.64,416.78L754.18,416.78L754.18,436.71L696.89,436.71L698.88,434.72L698.88,526.88L675.63,526.88L675.63,416.79L675.64,416.78ZM742.23,461.44L742.23,481.2L696.4,481.2L696.4,461.44L742.23,461.44Z" style="fill:rgb(230,231,237);fill-rule:nonzero;"/>
                <path d="M769.62,416.78L822.09,416.78C827.62,416.78 832.74,417.69 837.45,419.52C842.15,421.35 846.25,423.89 849.74,427.16C853.23,430.43 855.94,434.3 857.88,438.78C859.82,443.26 860.79,448.16 860.79,453.48C860.79,458.8 859.82,463.69 857.88,468.18C855.94,472.66 853.26,476.51 849.83,479.72C846.4,482.93 842.3,485.48 837.54,487.36C832.78,489.24 827.63,490.18 822.1,490.18L790.38,490.18L790.38,470.59L818.94,470.59C821.6,470.59 824.03,470.17 826.25,469.34C828.46,468.51 830.37,467.32 831.98,465.77C833.58,464.22 834.83,462.39 835.72,460.29C836.6,458.19 837.05,455.92 837.05,453.48C837.05,451.04 836.55,448.64 835.56,446.59C834.56,444.54 833.26,442.77 831.66,441.28C830.05,439.79 828.14,438.65 825.93,437.88C823.71,437.11 821.39,436.72 818.96,436.72L790.9,436.72L792.89,434.73L792.89,526.89L769.64,526.89L769.64,416.8L769.62,416.78ZM812.47,487.85L835.72,483.37L861.62,526.88L835.05,526.88L812.47,487.86L812.47,487.85Z" style="fill:rgb(230,231,237);fill-rule:nonzero;"/>
                <path d="M911.76,416.78L938.33,416.78L982.83,526.87L958.09,526.87L948.79,503.29L951.45,505.12L898.48,505.12L901.14,503.29L892.01,526.87L867.27,526.87L911.77,416.78L911.76,416.78ZM904.62,486.68L945.47,486.68L944.31,488.51L924.22,438.7L925.71,438.7L905.78,488.51L904.62,486.68Z" style="fill:rgb(230,231,237);fill-rule:nonzero;"/>
                <path d="M994.76,416.78L1014.37,416.78L1055.38,466.76L1052.72,466.76L1093.73,416.78L1113.32,416.78L1113.32,526.87L1090.4,526.87L1090.4,451.48L1091.73,451.98L1055.7,494.49L1052.21,494.49L1016.18,451.98L1017.51,451.48L1017.51,526.87L994.76,526.87L994.76,416.78Z" style="fill:rgb(230,231,237);fill-rule:nonzero;"/>
                <path d="M1216.13,506.94L1216.13,526.87L1138.25,526.87L1138.25,416.78L1214.63,416.78L1214.63,436.71L1159.34,436.71L1161.33,434.72L1161.33,508.94L1159.34,506.95L1216.13,506.95L1216.13,506.94ZM1208.99,460.95L1208.99,480.21L1158.84,480.21L1158.84,460.95L1208.99,460.95Z" style="fill:rgb(230,231,237);fill-rule:nonzero;"/>
                <path d="M1223.27,416.78L1247.02,416.78L1270.27,503.13L1269.27,503.13L1292.35,418.44L1314.93,418.44L1338.01,503.13L1337.01,503.13L1360.09,416.78L1383.84,416.78L1352.96,526.87L1323.4,526.87L1303.14,455.14L1304.14,455.14L1283.72,526.87L1254.33,526.87L1223.28,416.78L1223.27,416.78Z" style="fill:rgb(230,231,237);fill-rule:nonzero;"/>
                <path d="M1425.6,524.38C1418.46,521.61 1412.26,517.74 1407,512.76C1401.74,507.78 1397.64,501.83 1394.71,494.91C1391.78,487.99 1390.31,480.38 1390.31,472.08C1390.31,463.78 1391.78,456.14 1394.71,449.16C1397.64,442.19 1401.74,436.18 1407,431.14C1412.26,426.1 1418.46,422.17 1425.6,419.35C1432.74,416.53 1440.52,415.12 1448.93,415.12C1457.34,415.12 1465.31,416.53 1472.51,419.35C1479.7,422.17 1485.9,426.1 1491.11,431.14C1496.31,436.18 1500.38,442.18 1503.31,449.16C1506.24,456.13 1507.71,463.77 1507.71,472.08C1507.71,480.39 1506.24,488.16 1503.31,495.08C1500.38,502 1496.31,507.92 1491.11,512.85C1485.9,517.78 1479.71,521.62 1472.51,524.39C1465.31,527.16 1457.45,528.54 1448.93,528.54C1440.41,528.54 1432.74,527.15 1425.6,524.39L1425.6,524.38ZM1462.71,504.62C1466.92,502.96 1470.57,500.63 1473.67,497.65C1476.77,494.66 1479.2,490.98 1480.98,486.61C1482.75,482.24 1483.64,477.39 1483.64,472.08C1483.64,466.77 1482.75,461.79 1480.98,457.47C1479.21,453.15 1476.77,449.45 1473.67,446.35C1470.57,443.25 1466.92,440.87 1462.71,439.21C1458.5,437.55 1453.91,436.72 1448.93,436.72C1443.95,436.72 1439.68,437.55 1435.48,439.21C1431.27,440.87 1427.62,443.25 1424.52,446.35C1421.42,449.45 1418.98,453.16 1417.21,457.47C1415.44,461.79 1414.55,466.66 1414.55,472.08C1414.55,477.5 1415.43,482.24 1417.21,486.61C1418.98,490.98 1421.42,494.66 1424.52,497.65C1427.62,500.64 1431.27,502.96 1435.48,504.62C1439.69,506.28 1444.17,507.11 1448.93,507.11C1453.69,507.11 1458.5,506.28 1462.71,504.62Z" style="fill:rgb(230,231,237);fill-rule:nonzero;"/>
                <path d="M1525.64,416.78L1578.11,416.78C1583.64,416.78 1588.76,417.69 1593.47,419.52C1598.17,421.35 1602.27,423.89 1605.76,427.16C1609.25,430.43 1611.96,434.3 1613.9,438.78C1615.84,443.26 1616.81,448.16 1616.81,453.48C1616.81,458.8 1615.84,463.69 1613.9,468.18C1611.96,472.66 1609.28,476.51 1605.85,479.72C1602.42,482.93 1598.32,485.48 1593.56,487.36C1588.8,489.24 1583.65,490.18 1578.12,490.18L1546.4,490.18L1546.4,470.59L1574.96,470.59C1577.62,470.59 1580.05,470.17 1582.27,469.34C1584.48,468.51 1586.39,467.32 1588,465.77C1589.6,464.22 1590.85,462.39 1591.74,460.29C1592.62,458.19 1593.07,455.92 1593.07,453.48C1593.07,451.04 1592.57,448.64 1591.58,446.59C1590.58,444.54 1589.28,442.77 1587.68,441.28C1586.07,439.79 1584.16,438.65 1581.95,437.88C1579.73,437.11 1577.41,436.72 1574.98,436.72L1546.92,436.72L1548.91,434.73L1548.91,526.89L1525.66,526.89L1525.66,416.8L1525.64,416.78ZM1568.48,487.85L1591.73,483.37L1617.63,526.88L1591.06,526.88L1568.48,487.86L1568.48,487.85Z" style="fill:rgb(230,231,237);fill-rule:nonzero;"/>
                <path d="M1635.73,416.78L1658.81,416.78L1658.81,526.87L1635.73,526.87L1635.73,416.78ZM1676.25,482.86L1656.32,482.86L1656.32,463.27L1678.24,463.27L1704.48,416.78L1729.55,416.78L1695.51,475.23L1695.34,471.91L1732.04,526.87L1704.64,526.87L1676.25,482.87L1676.25,482.86Z" style="fill:rgb(230,231,237);fill-rule:nonzero;"/>
                <path d="M1762.43,492.66C1762.65,495.21 1763.31,497.48 1764.42,499.47C1765.52,501.46 1766.99,503.12 1768.82,504.45C1770.65,505.78 1772.72,506.8 1775.05,507.52C1777.37,508.24 1779.92,508.6 1782.69,508.6C1785.12,508.6 1787.45,508.32 1789.66,507.77C1791.87,507.22 1793.81,506.36 1795.47,505.2C1797.13,504.04 1798.48,502.6 1799.54,500.88C1800.59,499.17 1801.12,497.2 1801.12,494.99C1801.12,492.33 1800.34,490.15 1798.8,488.43C1797.25,486.72 1795.28,485.3 1792.91,484.2C1790.53,483.09 1787.98,482.18 1785.27,481.46C1782.56,480.74 1779.93,480.11 1777.38,479.55C1773.06,478.55 1768.66,477.37 1764.18,475.98C1759.7,474.6 1755.65,472.77 1752.06,470.5C1748.46,468.23 1745.5,465.21 1743.18,461.45C1740.86,457.69 1739.69,452.93 1739.69,447.17C1739.69,442.08 1740.66,437.57 1742.6,433.64C1744.54,429.71 1747.28,426.36 1750.82,423.59C1754.36,420.82 1758.68,418.72 1763.77,417.28C1768.86,415.84 1774.62,415.12 1781.04,415.12C1787.46,415.12 1792.83,415.9 1797.81,417.44C1802.79,418.99 1807.03,421.23 1810.51,424.17C1814,427.1 1816.71,430.62 1818.65,434.71C1820.59,438.81 1821.66,443.4 1821.89,448.49L1797.48,448.49C1797.37,446.28 1796.84,444.34 1795.9,442.68C1794.96,441.02 1793.71,439.58 1792.16,438.36C1790.61,437.14 1788.81,436.23 1786.76,435.62C1784.71,435.01 1782.53,434.71 1780.2,434.71C1777.87,434.71 1775.85,434.96 1773.81,435.46C1771.76,435.96 1769.96,436.71 1768.41,437.7C1766.86,438.7 1765.61,439.94 1764.67,441.44C1763.73,442.93 1763.26,444.73 1763.26,446.84C1763.26,449.28 1764.03,451.27 1765.59,452.82C1767.14,454.37 1769.08,455.7 1771.4,456.81C1773.73,457.92 1776.27,458.78 1779.04,459.38C1781.81,459.99 1784.35,460.57 1786.68,461.12C1791.11,462.12 1795.56,463.31 1800.05,464.69C1804.53,466.08 1808.63,467.96 1812.34,470.34C1816.05,472.72 1819.06,475.82 1821.39,479.64C1823.71,483.46 1824.88,488.36 1824.88,494.34C1824.88,499.76 1823.83,504.61 1821.73,508.87C1819.63,513.13 1816.67,516.73 1812.85,519.66C1809.03,522.59 1804.49,524.81 1799.23,526.3C1793.97,527.79 1788.24,528.54 1782.04,528.54C1775.4,528.54 1769.42,527.68 1764.11,525.97C1758.8,524.26 1754.26,521.85 1750.49,518.75C1746.73,515.65 1743.76,511.89 1741.61,507.46C1739.45,503.03 1738.26,498.11 1738.04,492.68L1762.45,492.68L1762.43,492.66Z" style="fill:rgb(230,231,237);fill-rule:nonzero;"/>
            </g>
            <g transform="matrix(1,0,0,1,-217.125,-368.902)">
                <path d="M675.66,550.78L684.13,550.78L767.16,652.07L765.83,652.57L765.83,550.78L773.3,550.78L773.3,660.87L764.83,660.87L681.8,559.41L683.13,558.91L683.13,660.87L675.66,660.87L675.66,550.78Z" style="fill:rgb(230,231,237);fill-rule:nonzero;"/>
                <path d="M880.73,654.23L880.73,660.87L808.5,660.87L808.5,550.78L878.91,550.78L878.91,557.26L814.15,557.26L816.14,555.27L816.14,656.23L814.15,654.24L880.74,654.24L880.73,654.23ZM870.27,600.76L870.27,607.4L813.65,607.4L813.65,600.76L870.27,600.76Z" style="fill:rgb(230,231,237);fill-rule:nonzero;"/>
                <path d="M896.33,550.78L981.85,550.78L981.85,557.26L896.33,557.26L896.33,550.78ZM935.36,554.76L942.83,554.76L942.83,660.87L935.36,660.87L935.36,554.76Z" style="fill:rgb(230,231,237);fill-rule:nonzero;"/>
                <path d="M995.3,550.78L1003.27,550.78L1035.65,653.9L1034.32,653.9L1070.02,550.78L1078.32,550.78L1114.02,653.9L1112.69,653.9L1145.07,550.78L1153.21,550.78L1118.34,660.87L1108.71,660.87L1073.51,557.42L1074.84,557.42L1039.64,660.87L1030.01,660.87L995.3,550.78Z" style="fill:rgb(230,231,237);fill-rule:nonzero;"/>
                <path d="M1202.2,658.29C1195.33,655.47 1189.41,651.57 1184.43,646.58C1179.45,641.6 1175.57,635.62 1172.81,628.65C1170.04,621.68 1168.66,614.04 1168.66,605.73C1168.66,597.42 1170.04,589.82 1172.81,582.9C1175.58,575.98 1179.45,570.03 1184.43,565.05C1189.41,560.07 1195.33,556.17 1202.2,553.34C1209.06,550.52 1216.65,549.11 1224.95,549.11C1233.25,549.11 1240.83,550.52 1247.7,553.34C1254.56,556.16 1260.49,560.07 1265.47,565.05C1270.45,570.03 1274.32,575.98 1277.09,582.9C1279.86,589.82 1281.24,597.43 1281.24,605.73C1281.24,614.03 1279.86,621.67 1277.09,628.65C1274.32,635.62 1270.45,641.6 1265.47,646.58C1260.49,651.56 1254.56,655.46 1247.7,658.29C1240.83,661.11 1233.25,662.52 1224.95,662.52C1216.65,662.52 1209.07,661.11 1202.2,658.29ZM1244.62,651.9C1250.54,649.47 1255.66,646.06 1259.98,641.69C1264.3,637.32 1267.64,632.06 1270.03,625.92C1272.41,619.78 1273.6,613.05 1273.6,605.74C1273.6,598.43 1272.41,591.74 1270.03,585.65C1267.65,579.56 1264.3,574.33 1259.98,569.96C1255.66,565.59 1250.54,562.18 1244.62,559.75C1238.7,557.32 1232.14,556.1 1224.94,556.1C1217.74,556.1 1211.32,557.32 1205.35,559.75C1199.37,562.19 1194.23,565.59 1189.91,569.96C1185.59,574.33 1182.24,579.56 1179.86,585.65C1177.48,591.74 1176.29,598.44 1176.29,605.74C1176.29,613.04 1177.48,619.77 1179.86,625.92C1182.24,632.06 1185.59,637.32 1189.91,641.69C1194.23,646.06 1199.37,649.47 1205.35,651.9C1211.33,654.34 1217.86,655.55 1224.94,655.55C1232.02,655.55 1238.69,654.33 1244.62,651.9Z" style="fill:rgb(230,231,237);fill-rule:nonzero;"/>
                <path d="M1309.47,550.78L1352.81,550.78C1358.01,550.78 1362.83,551.44 1367.26,552.77C1371.69,554.1 1375.51,556.12 1378.72,558.83C1381.93,561.54 1384.48,565 1386.36,569.21C1388.24,573.42 1389.18,578.4 1389.18,584.16C1389.18,589.14 1388.27,593.65 1386.44,597.69C1384.61,601.73 1382.06,605.19 1378.8,608.07C1375.53,610.95 1371.66,613.16 1367.18,614.71C1362.7,616.26 1357.74,617.04 1352.32,617.04L1314.46,617.04L1314.46,610.4L1352.49,610.4C1356.58,610.4 1360.4,609.79 1363.95,608.57C1367.49,607.35 1370.59,605.61 1373.25,603.34C1375.91,601.07 1377.98,598.33 1379.48,595.12C1380.97,591.91 1381.72,588.26 1381.72,584.16C1381.72,579.51 1380.97,575.53 1379.48,572.2C1377.99,568.87 1375.91,566.11 1373.25,563.9C1370.59,561.69 1367.49,560.05 1363.95,559C1360.41,557.95 1356.59,557.42 1352.49,557.42L1314.96,557.42L1316.95,555.43L1316.95,660.87L1309.48,660.87L1309.48,550.78L1309.47,550.78ZM1353.64,615.04L1361.61,613.55L1390.34,660.87L1381.54,660.87L1353.64,615.04Z" style="fill:rgb(230,231,237);fill-rule:nonzero;"/>
                <path d="M1418.73,550.78L1426.2,550.78L1426.2,660.87L1418.73,660.87L1418.73,550.78ZM1457.08,611.05L1423.7,611.05L1423.7,604.57L1457.58,604.57L1489.29,550.77L1498.26,550.77L1463.22,609.39L1463.05,606.07L1500.58,660.87L1491.12,660.87L1457.08,611.06L1457.08,611.05Z" style="fill:rgb(230,231,237);fill-rule:nonzero;"/>
            </g>
            <g transform="matrix(1,0,0,1,-217.125,-368.902)">
                <path d="M313.56,572.87L313.69,572.14L313.94,572.49L313.56,572.87Z" style="fill:rgb(2,38,43);fill-opacity:0.6;fill-rule:nonzero;"/>
            </g>
            <g transform="matrix(1,0,0,1,-217.125,-368.902)">
                <path d="M539.06,620.51C542.62,613.83 545.72,606.95 548.35,599.91C560.45,567.54 562.63,531.85 554.01,497.83C553.56,496.03 551.73,494.94 549.93,495.4C548.14,495.85 547.05,497.68 547.5,499.47C555.79,532.17 553.69,566.46 542.08,597.56C539.98,603.18 537.56,608.71 534.84,614.1C532.63,618.48 530.21,622.77 527.59,626.96C527.3,627.44 527,627.91 526.69,628.38C525.42,630.39 524.1,632.37 522.71,634.32C522.05,635.28 521.36,636.24 520.66,637.19C519.76,638.42 518.84,639.63 517.89,640.84C512.56,647.71 506.62,654.2 500.09,660.26C498.25,661.96 496.36,663.64 494.43,665.27C490.48,668.61 486.33,671.8 482,674.81C478.57,677.19 474.88,679.59 471.13,681.77C467.82,683.69 464.47,685.45 461.2,686.92C461.06,686.99 460.92,687.06 460.79,687.14L460.76,687.16L460.74,687.16L460.58,687.29L460.43,687.41L460.37,687.45L460.3,687.51L460.11,687.7L460.07,687.75L460.05,687.77L460.03,687.8L460,687.83C459.77,688.11 459.57,688.43 459.44,688.79C459.3,689.15 459.23,689.53 459.22,689.9L459.22,690.26L459.25,690.42L459.29,690.67L459.35,690.9C459.39,691.06 459.45,691.21 459.51,691.36C459.58,691.5 459.65,691.64 459.73,691.77L459.75,691.79L459.77,691.82L459.88,691.98L460,692.13L460.04,692.19L460.34,692.49L460.36,692.49L460.42,692.56C460.7,692.79 461.02,692.98 461.38,693.12L483.09,701.39L504.75,709.65C504.94,709.72 505.13,709.78 505.34,709.82C506.31,710.21 507.44,710.1 508.32,709.48C508.49,709.37 508.64,709.23 508.79,709.08L556.35,659.8C557.38,658.73 557.5,657.12 556.75,655.92L539.06,620.51Z" style="fill:rgb(242,242,242);fill-rule:nonzero;"/>
            </g>
            <g transform="matrix(1,0,0,1,-217.125,-368.902)">
                <path d="M427.7,697.67C395,705.96 360.71,703.86 329.62,692.24C313.96,686.39 299.11,678.13 285.67,667.54C283.67,665.98 281.69,664.35 279.75,662.67C272.21,656.14 265.17,648.83 258.77,640.77C257.46,639.14 256.18,637.46 254.94,635.76C254.57,635.27 254.21,634.78 253.85,634.28C253.35,633.58 252.85,632.88 252.36,632.17C249.98,628.73 247.59,625.05 245.4,621.29C243.51,618.05 241.78,614.76 240.33,611.54C240.3,611.48 240.28,611.43 240.25,611.37C240.25,611.35 240.23,611.32 240.22,611.3C240.16,611.18 240.1,611.07 240.03,610.96L240.01,610.93L240.01,610.9L239.89,610.74L239.77,610.6L239.72,610.54L239.66,610.47L239.56,610.36L239.47,610.28L239.43,610.24L239.4,610.22L239.38,610.19L239.34,610.17C239.29,610.13 239.24,610.09 239.19,610.05C238.95,609.87 238.68,609.72 238.39,609.61C238.02,609.47 237.65,609.4 237.28,609.39L236.91,609.39L236.75,609.42L236.51,609.46L236.27,609.52C236.12,609.56 235.97,609.62 235.81,609.68C235.67,609.75 235.54,609.82 235.41,609.9L235.35,609.94L235.19,610.05L234.99,610.21L234.92,610.27L234.73,610.46L234.69,610.51L234.61,610.59C234.38,610.87 234.19,611.19 234.05,611.55L225.78,633.25L217.53,654.92C217.45,655.11 217.39,655.3 217.35,655.51C216.96,656.48 217.08,657.61 217.69,658.49C217.8,658.66 217.94,658.81 218.09,658.96L267.38,706.52C268.44,707.55 270.05,707.67 271.25,706.92L306.67,689.23C313.34,692.79 320.22,695.89 327.26,698.52C359.63,710.62 395.32,712.8 429.34,704.18C431.14,703.72 432.23,701.9 431.78,700.1C431.32,698.31 429.5,697.22 427.7,697.67Z" style="fill:rgb(242,242,242);fill-rule:nonzero;"/>
            </g>
            <g transform="matrix(1,0,0,1,-217.125,-368.902)">
                <path d="M222.39,582.08C222.84,583.87 224.67,584.96 226.46,584.51C228.26,584.05 229.35,582.23 228.89,580.43C220.61,547.74 222.7,513.44 234.32,482.35C240.43,466.01 249.16,450.55 260.42,436.66C266.85,428.7 274.11,421.26 282.17,414.47C286.06,411.19 290.14,408.06 294.4,405.1C297.83,402.71 301.52,400.32 305.27,398.13C308.57,396.21 311.92,394.45 315.2,392.98C315.34,392.92 315.48,392.84 315.61,392.76L315.63,392.74L315.66,392.74L315.82,392.62L315.97,392.5L316.03,392.45L316.09,392.39L316.2,392.29L316.28,392.2L316.33,392.16L316.35,392.13L316.37,392.11L316.4,392.07C316.63,391.79 316.82,391.48 316.96,391.12C317.1,390.75 317.17,390.38 317.18,390.01L317.18,389.78L317.17,389.64L317.15,389.48L317.11,389.24L317.05,389C317.01,388.85 316.95,388.7 316.88,388.55C316.82,388.4 316.74,388.27 316.66,388.14L316.64,388.11L316.64,388.08L316.52,387.92L316.4,387.77L316.35,387.72L316.29,387.65L316.06,387.42L316.03,387.4L316.01,387.37L315.97,387.35C315.69,387.11 315.37,386.92 315.02,386.79L293.31,378.51L271.65,370.26C271.46,370.18 271.26,370.12 271.06,370.08C270.08,369.7 268.96,369.81 268.08,370.42C267.91,370.54 267.75,370.67 267.61,370.82L220.05,420.11C219.02,421.18 218.89,422.78 219.65,423.98L237.33,459.4C233.77,466.07 230.67,472.95 228.04,480C215.95,512.36 213.77,548.05 222.39,582.08Z" style="fill:rgb(242,242,242);fill-rule:nonzero;"/>
            </g>
            <g transform="matrix(1,0,0,1,-217.125,-368.902)">
                <path d="M519.68,441.65C520.78,443.12 521.85,444.61 522.91,446.13C525.3,449.56 527.69,453.25 529.88,457C531.8,460.3 533.56,463.65 535.03,466.93C535.09,467.07 535.17,467.21 535.25,467.34L535.27,467.36L535.27,467.39L535.39,467.55L535.51,467.7L535.56,467.76L535.62,467.82L535.72,467.93L535.81,468.01L535.85,468.05L535.88,468.07L535.9,468.1L535.94,468.13C536.22,468.36 536.54,468.55 536.89,468.69C537.26,468.83 537.63,468.89 538,468.9L538.37,468.9L538.53,468.88L538.77,468.84L539.01,468.78C539.16,468.73 539.31,468.68 539.46,468.61C539.61,468.54 539.74,468.47 539.87,468.39L539.9,468.37L539.93,468.37L540.09,468.25L540.24,468.13L540.29,468.08L540.36,468.02L540.59,467.79L540.61,467.76L540.64,467.74L540.66,467.7C540.9,467.42 541.09,467.1 541.22,466.74L549.5,445.04L557.75,423.38C557.83,423.19 557.89,422.99 557.93,422.79C558.32,421.81 558.2,420.69 557.59,419.81C557.47,419.64 557.34,419.48 557.19,419.33L507.9,371.78C506.84,370.75 505.23,370.62 504.03,371.38L468.61,389.06C461.94,385.5 455.06,382.4 448.01,379.77C415.65,367.68 379.96,365.5 345.93,374.12C344.14,374.57 343.05,376.4 343.5,378.19C343.96,379.98 345.78,381.08 347.58,380.62C380.27,372.34 414.57,374.43 445.66,386.05C461.19,391.85 475.94,400.04 489.29,410.5C500.52,419.29 510.77,429.7 519.68,441.65Z" style="fill:rgb(242,242,242);fill-rule:nonzero;"/>
            </g>
        </g>
    </g>
</svg>
