<svg width="550" height="179" viewBox="0 0 550 179" fill="none" xmlns="http://www.w3.org/2000/svg">
<g clip-path="url(#clip0_2674_23230)">
<path fill-rule="evenodd" clip-rule="evenodd" d="M343.185 54.7808C348.1 46.7458 356.43 42.6718 367.942 42.6718C377.384 42.6718 384.535 46.7438 389.195 54.7753C391.903 59.4406 392.948 64.1682 393.288 66.1265H339.278C339.501 64.2116 340.319 59.4635 343.185 54.7808ZM396.808 89.764C395.295 90.1421 394.622 91.7736 393.563 94.6236C391.883 99.149 389.343 105.988 379.32 110.68C371.4 114.387 361.331 114.307 352.385 110.464C345.423 107.475 340.25 102.64 338.547 97.5314C334.855 86.4562 337.094 75.5772 337.191 75.1194L337.333 74.4479H402.006C402.357 74.1594 403.31 73.1123 403.081 70.3729C402.862 67.7441 401.741 58.4921 396.515 49.7871C389.525 38.1445 378.314 32.2422 363.19 32.2422C353.865 32.2422 346.246 35.6372 340.542 42.3346C333.567 50.5239 330.722 62.192 329.564 70.5388C328.118 80.9559 328.695 89.6564 329.203 92.8019C329.674 95.7271 334.799 121.381 368.975 121.381C380.808 121.381 390.184 116.54 396.841 106.989C401.289 100.609 402.975 94.1389 403.305 92.7326C402.808 91.8299 400.795 88.7662 396.808 89.764Z" fill="#FFCA71"/>
<path fill-rule="evenodd" clip-rule="evenodd" d="M429.064 54.7808C433.979 46.7458 442.309 42.6718 453.821 42.6718C463.263 42.6718 470.414 46.7438 475.074 54.7753C477.782 59.4406 478.827 64.1682 479.167 66.1265H425.157C425.38 64.2116 426.198 59.4635 429.064 54.7808ZM482.687 89.764C481.173 90.1421 480.5 91.7736 479.442 94.6236C477.761 99.149 475.222 105.988 465.199 110.68C457.279 114.387 447.21 114.307 438.264 110.464C431.302 107.475 426.129 102.64 424.426 97.5314C420.734 86.4562 422.973 75.5772 423.07 75.1194L423.212 74.4479H487.885C488.235 74.1594 489.188 73.1123 488.96 70.3729C488.741 67.7441 487.62 58.4921 482.393 49.7871C475.404 38.1445 464.192 32.2422 449.069 32.2422C439.744 32.2422 432.124 35.6372 426.421 42.3346C419.446 50.5239 416.601 62.192 415.443 70.5388C413.997 80.9559 414.574 89.6564 415.082 92.8019C415.553 95.7271 420.678 121.381 454.854 121.381C466.687 121.381 476.063 116.54 482.72 106.989C487.168 100.609 488.854 94.1389 489.184 92.7326C488.686 91.8299 486.671 88.7662 482.687 89.764Z" fill="#FFCA71"/>
<path fill-rule="evenodd" clip-rule="evenodd" d="M5.13034 2.57812C3.32648 2.57812 1.85938 4.04572 1.85938 5.84959V119.439C1.85938 121.243 3.32648 122.711 5.13034 122.711H6.54663C8.35049 122.711 9.81809 121.243 9.81809 119.439V5.84959C9.81809 4.04572 8.35049 2.57812 6.54663 2.57812H5.13034Z" fill="#FFCA71"/>
<path fill-rule="evenodd" clip-rule="evenodd" d="M32.5973 1.91406C31.738 1.91406 31.0391 2.61299 31.0391 3.47283V10.9772C31.0391 11.837 31.738 12.536 32.5973 12.536H41.7332C42.5921 12.536 43.2915 11.837 43.2915 10.9772V3.47283C43.2915 2.61299 42.5921 1.91406 41.7332 1.91406H32.5973Z" fill="#FFCA71"/>
<path fill-rule="evenodd" clip-rule="evenodd" d="M137.742 31.2109C136.883 31.2109 136.184 31.9099 136.184 32.7692V40.2741C136.184 41.1339 136.883 41.8329 137.742 41.8329H146.878C147.737 41.8329 148.436 41.1339 148.436 40.2741V32.7692C148.436 31.9099 147.737 31.2109 146.878 31.2109H137.742Z" fill="#FFCA71"/>
<path fill-rule="evenodd" clip-rule="evenodd" d="M119.687 69.5508C118.828 69.5508 118.129 70.2497 118.129 71.109V78.6139C118.129 79.4733 118.828 80.1722 119.687 80.1722H128.823C129.682 80.1722 130.381 79.4733 130.381 78.6139V71.109C130.381 70.2497 129.682 69.5508 128.823 69.5508H119.687Z" fill="#FFCA71"/>
<path fill-rule="evenodd" clip-rule="evenodd" d="M100.047 110.094C99.1872 110.094 98.4883 110.793 98.4883 111.653V119.157C98.4883 120.017 99.1872 120.716 100.047 120.716H109.182C110.042 120.716 110.741 120.017 110.741 119.157V111.653C110.741 110.793 110.042 110.094 109.182 110.094H100.047Z" fill="#FFCA71"/>
<path fill-rule="evenodd" clip-rule="evenodd" d="M36.7509 28.6C34.947 28.6 33.4794 30.0676 33.4794 31.8715V119.438C33.4794 121.242 34.947 122.71 36.7509 122.71H38.1667C39.9705 122.71 41.4381 121.242 41.4381 119.438V31.8715C41.4381 30.0676 39.9705 28.6 38.1667 28.6H36.7509ZM38.1667 124.404H36.7509C34.013 124.404 31.7852 122.176 31.7852 119.438V31.8715C31.7852 29.1336 34.013 26.9062 36.7509 26.9062H38.1667C40.9046 26.9062 43.1324 29.1336 43.1324 31.8715V119.438C43.1324 122.176 40.9046 124.404 38.1667 124.404Z" fill="black"/>
<path fill-rule="evenodd" clip-rule="evenodd" d="M507.213 28.6C505.018 28.6 503.233 30.385 503.233 32.5794V118.73C503.233 120.925 505.018 122.71 507.213 122.71C509.407 122.71 511.192 120.925 511.192 118.73V56.06L511.606 55.8139C511.909 55.633 541.957 37.7229 543.55 36.6997C543.672 36.6215 543.843 36.5199 544.052 36.3978C545.103 35.7821 547.564 34.3394 547.931 32.8031C548.038 32.3512 547.954 31.9313 547.664 31.4794C546.073 29.005 544.532 29.1196 542.069 30.2395C539.694 31.3195 512.735 46.9086 512.463 47.0661L511.192 47.8014V32.5794C511.192 30.385 509.407 28.6 507.213 28.6ZM507.213 124.404C504.085 124.404 501.539 121.858 501.539 118.73V32.5794C501.539 29.4514 504.085 26.9062 507.213 26.9062C510.341 26.9062 512.886 29.4514 512.886 32.5794V44.8652C518.352 41.7078 539.196 29.6855 541.369 28.6972C543.863 27.5643 546.732 26.8978 549.089 30.5638C549.63 31.4057 549.794 32.2914 549.578 33.1966C549.043 35.4354 546.25 37.0723 544.908 37.8594C544.725 37.9671 544.573 38.0552 544.466 38.124C542.934 39.1093 516.675 54.7642 512.886 57.0224V118.73C512.886 121.858 510.341 124.404 507.213 124.404Z" fill="black"/>
<path fill-rule="evenodd" clip-rule="evenodd" d="M64.1002 31.2094C63.2403 31.2094 62.5414 31.9083 62.5414 32.7677V40.2725C62.5414 41.1324 63.2403 41.8313 64.1002 41.8313H73.2356C74.0944 41.8313 74.7938 41.1324 74.7938 40.2725V32.7677C74.7938 31.9083 74.0944 31.2094 73.2356 31.2094H64.1002ZM73.2356 43.5256H64.1002C62.3063 43.5256 60.8477 42.0664 60.8477 40.2725V32.7677C60.8477 30.9743 62.3063 29.5156 64.1002 29.5156H73.2356C75.0285 29.5156 76.4876 30.9743 76.4876 32.7677V40.2725C76.4876 42.0664 75.0285 43.5256 73.2356 43.5256Z" fill="black"/>
<path fill-rule="evenodd" clip-rule="evenodd" d="M100.049 31.2094C99.1896 31.2094 98.4906 31.9083 98.4906 32.7677V40.2725C98.4906 41.1324 99.1896 41.8313 100.049 41.8313H109.185C110.044 41.8313 110.744 41.1324 110.744 40.2725V32.7677C110.744 31.9083 110.044 31.2094 109.185 31.2094H100.049ZM109.185 43.5256H100.049C98.2555 43.5256 96.7969 42.0664 96.7969 40.2725V32.7677C96.7969 30.9743 98.2555 29.5156 100.049 29.5156H109.185C110.978 29.5156 112.437 30.9743 112.437 32.7677V40.2725C112.437 42.0664 110.978 43.5256 109.185 43.5256Z" fill="black"/>
<path fill-rule="evenodd" clip-rule="evenodd" d="M81.9903 69.5492C81.131 69.5492 80.4321 70.2482 80.4321 71.1075V78.6124C80.4321 79.4717 81.131 80.1707 81.9903 80.1707H91.1262C91.985 80.1707 92.6845 79.4717 92.6845 78.6124V71.1075C92.6845 70.2482 91.985 69.5492 91.1262 69.5492H81.9903ZM91.1262 81.8649H81.9903C80.1969 81.8649 78.7383 80.4058 78.7383 78.6124V71.1075C78.7383 69.3141 80.1969 67.8555 81.9903 67.8555H91.1262C92.9191 67.8555 94.3782 69.3141 94.3782 71.1075V78.6124C94.3782 80.4058 92.9191 81.8649 91.1262 81.8649Z" fill="black"/>
<path fill-rule="evenodd" clip-rule="evenodd" d="M191.279 32.2406C181.953 32.2406 174.333 35.6361 168.63 42.3335C161.656 50.5234 158.811 62.1914 157.652 70.5377C156.206 80.9549 156.784 89.6554 157.291 92.8003C157.763 95.726 162.888 121.38 197.064 121.38C208.897 121.38 218.273 116.538 224.93 106.988C229.378 100.608 231.064 94.1374 231.394 92.7311C230.896 91.8284 228.882 88.7647 224.896 89.7625C223.383 90.1411 222.71 91.7721 221.651 94.6226C219.971 99.1479 217.431 105.987 207.409 110.678C199.489 114.385 189.421 114.305 180.474 110.463C173.512 107.474 168.339 102.639 166.636 97.5309C162.944 86.4547 165.182 75.5757 165.279 75.1179L165.422 74.4468H230.094C230.445 74.1584 231.398 73.1108 231.17 70.3713C230.951 67.7435 229.831 58.4925 224.604 49.7856C217.614 38.1434 206.402 32.2406 191.279 32.2406ZM197.064 123.074C183.937 123.074 173.422 119.369 165.813 112.061C158.198 104.749 156.147 96.3443 155.619 93.0698C154.594 86.7197 153.46 57.5351 167.341 41.2355C173.381 34.1426 181.434 30.5469 191.279 30.5469C207.038 30.5469 218.739 36.7261 226.056 48.9138C231.471 57.9346 232.631 67.5104 232.858 70.2304C233.234 74.7437 230.831 76.0001 230.728 76.0509L230.55 76.1406H166.815C166.398 78.6638 165.208 87.8909 168.242 96.9949C169.795 101.652 174.617 106.105 181.142 108.907C189.652 112.561 199.202 112.649 206.69 109.144C216.085 104.747 218.384 98.5541 220.064 94.0328C221.163 91.0717 222.032 88.7323 224.486 88.119C229.241 86.9344 232.172 90.314 233.058 92.2678L233.171 92.5164L233.117 92.7839C233.055 93.0932 231.54 100.445 226.355 107.906C221.546 114.825 212.561 123.074 197.064 123.074Z" fill="black"/>
<path fill-rule="evenodd" clip-rule="evenodd" d="M245.014 34.6317L248.48 171.314L248.468 171.392C248.465 171.414 248.103 173.844 249.43 175.334C250.21 176.211 251.463 176.62 253.163 176.556C254.838 176.491 256.093 175.966 256.897 174.995C258.337 173.258 257.964 170.642 257.96 170.615L257.952 170.53L254.29 92.6403L255.961 92.4076C255.971 92.4505 257.062 96.8921 261.192 101.309C266.656 107.151 274.977 110.317 285.253 110.463C285.364 110.465 285.475 110.466 285.586 110.466C303.039 110.466 310.522 90.8414 310.596 90.6421C312.294 86.732 314.054 78.0903 314.164 69.056C314.258 61.3609 313.197 50.8301 307.613 44.3574C293.59 28.1057 277.311 31.2496 270.963 33.3549C262.044 36.314 256.241 42.0813 255.981 45.7274L254.296 45.7717C253.834 42.0574 252.754 35.6435 251.824 34.2441C251.249 33.3773 247.959 33.7405 245.014 34.6317ZM252.815 178.257C250.783 178.257 249.218 177.65 248.156 176.45C246.447 174.52 246.713 171.742 246.784 171.208L243.289 33.4122L243.883 33.2139C245.153 32.7905 251.572 30.8058 253.235 33.3061C254.18 34.7298 255.001 39.0435 255.495 42.173C257.916 38.1413 263.689 33.9836 270.43 31.7478C277.102 29.535 294.204 26.2251 308.896 43.2515C314.826 50.1252 315.955 61.0889 315.858 69.077C315.745 78.3354 313.915 87.2516 312.166 91.2738C312.105 91.4417 304.201 112.157 285.587 112.159C285.467 112.159 285.35 112.158 285.229 112.157C271.595 111.962 263.923 106.74 259.888 102.393C258.241 100.619 257.051 98.8559 256.207 97.3335L259.641 170.413C259.699 170.848 260.016 173.885 258.203 176.075C257.078 177.433 255.404 178.164 253.228 178.249C253.089 178.254 252.951 178.257 252.815 178.257Z" fill="black"/>
<path fill-rule="evenodd" clip-rule="evenodd" d="M281.434 102.593C267.492 102.593 256.15 88.5757 256.15 71.3461C256.15 54.117 267.492 40.1006 281.434 40.1006C295.376 40.1006 306.719 54.117 306.719 71.3461C306.719 88.5757 295.376 102.593 281.434 102.593ZM307.615 44.3604C293.591 28.1087 277.313 31.2527 270.964 33.3579C262.045 36.317 256.243 42.0843 255.982 45.7304L254.297 45.7747C253.835 42.0604 252.756 35.6465 251.826 34.2472C251.25 33.3804 247.961 33.7435 245.016 34.6347L248.482 171.317L248.469 171.395C248.466 171.417 248.105 173.847 249.432 175.337C250.212 176.214 251.465 176.623 253.165 176.559C254.839 176.494 256.095 175.969 256.899 174.998C258.339 173.26 257.966 170.645 257.961 170.618L257.953 170.533L254.292 92.6433L255.962 92.4106C255.973 92.4535 257.063 96.8951 261.194 101.312C266.658 107.154 274.978 110.32 285.255 110.466C285.366 110.468 285.477 110.469 285.587 110.469C303.04 110.469 310.524 90.8444 310.597 90.6451C312.296 86.735 314.055 78.0933 314.166 69.0591C314.26 61.3639 313.199 50.8331 307.615 44.3604Z" fill="#FFCA71"/>
<path fill-rule="evenodd" clip-rule="evenodd" d="M171.274 54.7808C176.19 46.7458 184.52 42.6718 196.031 42.6718C205.474 42.6718 212.625 46.7438 217.285 54.7753C219.993 59.4406 221.037 64.1682 221.378 66.1265H167.368C167.591 64.2116 168.409 59.4635 171.274 54.7808ZM224.898 89.764C223.384 90.1421 222.711 91.7736 221.653 94.6236C219.972 99.149 217.432 105.988 207.41 110.68C199.491 114.386 189.423 114.306 180.475 110.464C173.513 107.475 168.34 102.64 166.637 97.5319C162.945 86.4562 165.183 75.5772 165.28 75.1194L165.423 74.4479H230.095C230.446 74.1594 231.399 73.1123 231.171 70.3729C230.952 67.7446 229.832 58.4941 224.605 49.7871C217.615 38.1445 206.404 32.2422 191.28 32.2422C181.955 32.2422 174.335 35.6377 168.631 42.3351C161.657 50.5249 158.812 62.193 157.654 70.5393C156.207 80.9564 156.785 89.6569 157.293 92.8019C157.764 95.7271 162.889 121.381 197.065 121.381C208.898 121.381 218.274 116.54 224.931 106.989C229.38 100.609 231.065 94.1389 231.395 92.7326C230.898 91.8299 228.883 88.7662 224.898 89.764Z" fill="#FFCA71"/>
<path fill-rule="evenodd" clip-rule="evenodd" d="M36.7519 28.6016C34.9481 28.6016 33.4805 30.0692 33.4805 31.873V119.44C33.4805 121.244 34.9481 122.711 36.7519 122.711H38.1677C39.9716 122.711 41.4392 121.244 41.4392 119.44V31.873C41.4392 30.0692 39.9716 28.6016 38.1677 28.6016H36.7519Z" fill="#FFCA71"/>
<path fill-rule="evenodd" clip-rule="evenodd" d="M64.1017 31.2109C63.2419 31.2109 62.543 31.9099 62.543 32.7692V40.2741C62.543 41.1339 63.2419 41.8329 64.1017 41.8329H73.2371C74.096 41.8329 74.7954 41.1339 74.7954 40.2741V32.7692C74.7954 31.9099 74.096 31.2109 73.2371 31.2109H64.1017Z" fill="#FFCA71"/>
<path fill-rule="evenodd" clip-rule="evenodd" d="M100.047 31.2109C99.1872 31.2109 98.4883 31.9099 98.4883 32.7692V40.2741C98.4883 41.1339 99.1872 41.8329 100.047 41.8329H109.182C110.042 41.8329 110.741 41.1339 110.741 40.2741V32.7692C110.741 31.9099 110.042 31.2109 109.182 31.2109H100.047Z" fill="#FFCA71"/>
<path fill-rule="evenodd" clip-rule="evenodd" d="M81.9919 69.5508C81.1325 69.5508 80.4336 70.2497 80.4336 71.109V78.6139C80.4336 79.4733 81.1325 80.1722 81.9919 80.1722H91.1277C91.9866 80.1722 92.686 79.4733 92.686 78.6139V71.109C92.686 70.2497 91.9866 69.5508 91.1277 69.5508H81.9919Z" fill="#FFCA71"/>
<path fill-rule="evenodd" clip-rule="evenodd" d="M507.214 28.6016C505.019 28.6016 503.234 30.3865 503.234 32.5809V118.732C503.234 120.926 505.019 122.711 507.214 122.711C509.408 122.711 511.193 120.926 511.193 118.732V56.0615L511.607 55.8154C511.91 55.6346 541.958 37.7245 543.551 36.7013C543.673 36.623 543.844 36.5214 544.053 36.3994C545.104 35.7836 547.565 34.3409 547.932 32.8046C548.04 32.3528 547.955 31.9328 547.665 31.481C546.074 29.0066 544.533 29.1212 542.07 30.241C539.695 31.3211 512.736 46.9102 512.464 47.0676L511.193 47.8029V32.5809C511.193 30.3865 509.408 28.6016 507.214 28.6016Z" fill="#FFCA71"/>
<path fill-rule="evenodd" clip-rule="evenodd" d="M5.12929 2.57658C3.32543 2.57658 1.85833 4.04418 1.85833 5.84804V119.438C1.85833 121.241 3.32543 122.709 5.12929 122.709H6.54558C8.34944 122.709 9.81704 121.241 9.81704 119.438V5.84804C9.81704 4.04418 8.34944 2.57658 6.54558 2.57658H5.12929ZM6.54558 124.403H5.12929C2.39186 124.403 0.164062 122.175 0.164062 119.438V5.84804C0.164062 3.11012 2.39186 0.882812 5.12929 0.882812H6.54558C9.28351 0.882812 11.5113 3.11012 11.5113 5.84804V119.438C11.5113 122.175 9.28351 124.403 6.54558 124.403Z" fill="black"/>
<path fill-rule="evenodd" clip-rule="evenodd" d="M32.5958 1.91252C31.7364 1.91252 31.0375 2.61145 31.0375 3.47128V10.9757C31.0375 11.8355 31.7364 12.5344 32.5958 12.5344H41.7317C42.5905 12.5344 43.2899 11.8355 43.2899 10.9757V3.47128C43.2899 2.61145 42.5905 1.91252 41.7317 1.91252H32.5958ZM41.7317 14.2287H32.5958C30.8024 14.2287 29.3438 12.7696 29.3438 10.9757V3.47128C29.3438 1.67738 30.8024 0.21875 32.5958 0.21875H41.7317C43.5246 0.21875 44.9837 1.67738 44.9837 3.47128V10.9757C44.9837 12.7696 43.5246 14.2287 41.7317 14.2287Z" fill="black"/>
<path fill-rule="evenodd" clip-rule="evenodd" d="M100.049 110.092C99.1896 110.092 98.4906 110.791 98.4906 111.651V119.155C98.4906 120.015 99.1896 120.714 100.049 120.714H109.185C110.044 120.714 110.744 120.015 110.744 119.155V111.651C110.744 110.791 110.044 110.092 109.185 110.092H100.049ZM109.185 122.408H100.049C98.2555 122.408 96.7969 120.949 96.7969 119.155V111.651C96.7969 109.857 98.2555 108.398 100.049 108.398H109.185C110.978 108.398 112.437 109.857 112.437 111.651V119.155C112.437 120.949 110.978 122.408 109.185 122.408Z" fill="black"/>
<path fill-rule="evenodd" clip-rule="evenodd" d="M137.744 31.2094C136.885 31.2094 136.186 31.9083 136.186 32.7677V40.2725C136.186 41.1324 136.885 41.8313 137.744 41.8313H146.88C147.739 41.8313 148.438 41.1324 148.438 40.2725V32.7677C148.438 31.9083 147.739 31.2094 146.88 31.2094H137.744ZM146.88 43.5256H137.744C135.951 43.5256 134.492 42.0664 134.492 40.2725V32.7677C134.492 30.9743 135.951 29.5156 137.744 29.5156H146.88C148.673 29.5156 150.132 30.9743 150.132 32.7677V40.2725C150.132 42.0664 148.673 43.5256 146.88 43.5256Z" fill="black"/>
<path fill-rule="evenodd" clip-rule="evenodd" d="M119.686 69.5492C118.826 69.5492 118.127 70.2482 118.127 71.1075V78.6124C118.127 79.4717 118.826 80.1707 119.686 80.1707H128.821C129.68 80.1707 130.38 79.4717 130.38 78.6124V71.1075C130.38 70.2482 129.68 69.5492 128.821 69.5492H119.686ZM128.821 81.8649H119.686C117.892 81.8649 116.434 80.4058 116.434 78.6124V71.1075C116.434 69.3141 117.892 67.8555 119.686 67.8555H128.821C130.614 67.8555 132.074 69.3141 132.074 71.1075V78.6124C132.074 80.4058 130.614 81.8649 128.821 81.8649Z" fill="black"/>
<path fill-rule="evenodd" clip-rule="evenodd" d="M363.188 32.2406C353.864 32.2406 346.244 35.6357 340.541 42.333C333.566 50.5224 330.721 62.1904 329.563 70.5372C328.116 80.9544 328.694 89.6549 329.201 92.8003C329.673 95.726 334.797 121.38 368.974 121.38C380.807 121.38 390.183 116.538 396.84 106.988C401.288 100.608 402.974 94.1374 403.303 92.7311C402.806 91.8284 400.793 88.7647 396.806 89.7625C395.293 90.1411 394.62 91.7721 393.562 94.6221C391.881 99.148 389.342 105.986 379.319 110.678C371.398 114.386 361.33 114.305 352.384 110.463C345.422 107.474 340.249 102.639 338.546 97.5304C334.854 86.4547 337.092 75.5757 337.19 75.1179L337.332 74.4468H402.005C402.355 74.1584 403.308 73.1108 403.08 70.3713C402.861 67.743 401.74 58.4906 396.513 49.7856C389.524 38.1434 378.312 32.2406 363.188 32.2406ZM368.974 123.074C355.847 123.074 345.332 119.369 337.723 112.061C330.108 104.749 328.057 96.3443 327.529 93.0698C326.504 86.7192 325.371 57.5331 339.251 41.2345C345.291 34.1426 353.345 30.5469 363.188 30.5469C378.948 30.5469 390.649 36.7261 397.965 48.9138C403.38 57.9326 404.541 67.5099 404.768 70.2304C405.145 74.7437 402.741 76.0001 402.639 76.0509L402.46 76.1406H338.725C338.308 78.6638 337.118 87.8909 340.153 96.9949C341.705 101.652 346.527 106.104 353.052 108.907C361.56 112.561 371.111 112.649 378.6 109.144C387.995 104.746 390.295 98.5541 391.974 94.0323C393.073 91.0717 393.942 88.7323 396.396 88.119C401.154 86.9344 404.082 90.314 404.968 92.2678L405.08 92.5164L405.026 92.7839C404.965 93.0932 403.45 100.445 398.265 107.906C393.456 114.825 384.471 123.074 368.974 123.074Z" fill="black"/>
<path fill-rule="evenodd" clip-rule="evenodd" d="M449.067 32.2406C439.743 32.2406 432.123 35.6357 426.42 42.333C419.445 50.5224 416.6 62.1904 415.442 70.5372C413.995 80.9544 414.573 89.6549 415.08 92.8003C415.552 95.726 420.676 121.38 454.853 121.38C466.686 121.38 476.061 116.538 482.719 106.988C487.167 100.608 488.853 94.1374 489.182 92.7311C488.685 91.8284 486.669 88.7647 482.685 89.7625C481.172 90.1411 480.499 91.7721 479.441 94.6221C477.76 99.148 475.221 105.986 465.197 110.678C457.277 114.386 447.209 114.305 438.263 110.463C431.301 107.474 426.128 102.639 424.425 97.5304C420.733 86.4547 422.971 75.5757 423.068 75.1179L423.211 74.4468H487.883C488.234 74.1584 489.187 73.1108 488.959 70.3713C488.74 67.743 487.618 58.4906 482.392 49.7856C475.403 38.1434 464.191 32.2406 449.067 32.2406ZM454.853 123.074C441.726 123.074 431.211 119.369 423.602 112.061C415.987 104.749 413.936 96.3443 413.408 93.0698C412.383 86.7192 411.249 57.5331 425.13 41.2345C431.17 34.1426 439.224 30.5469 449.067 30.5469C464.827 30.5469 476.528 36.7261 483.844 48.9138C489.259 57.9326 490.42 67.5099 490.647 70.2304C491.023 74.7437 488.62 76.0001 488.518 76.0509L488.339 76.1406H424.604C424.187 78.6638 422.997 87.8909 426.032 96.9944C427.584 101.652 432.406 106.104 438.931 108.907C447.439 112.561 456.99 112.649 464.479 109.144C473.874 104.746 476.174 98.5541 477.853 94.0323C478.952 91.0717 479.821 88.7323 482.275 88.119C487.031 86.9344 489.961 90.314 490.847 92.2678L490.959 92.5164L490.905 92.7839C490.844 93.0932 489.329 100.445 484.144 107.906C479.335 114.825 470.35 123.074 454.853 123.074Z" fill="black"/>
<path fill-rule="evenodd" clip-rule="evenodd" d="M167.37 66.125H221.38C221.038 64.1662 219.994 59.4391 217.287 54.7738C212.626 46.7423 205.476 42.6703 196.033 42.6703C184.521 42.6703 176.192 46.7443 171.276 54.7793C168.411 59.462 167.593 64.2096 167.37 66.125ZM223.308 67.8188H165.562L165.597 66.9385C165.608 66.673 165.9 60.3587 169.793 53.9573C176.318 43.2283 187.664 40.9766 196.033 40.9766C208.627 40.9766 215.355 48.0446 218.781 53.9737C222.461 60.3428 223.177 66.6162 223.206 66.8807L223.308 67.8188Z" fill="black"/>
<path fill-rule="evenodd" clip-rule="evenodd" d="M339.276 66.125H393.286C392.945 64.1662 391.901 59.4391 389.193 54.7738C384.533 46.7423 377.382 42.6703 367.94 42.6703C356.428 42.6703 348.098 46.7443 343.183 54.7793C340.317 59.462 339.499 64.2096 339.276 66.125ZM395.214 67.8188H337.469L337.504 66.9385C337.514 66.673 337.807 60.3587 341.699 53.9573C348.225 43.2283 359.57 40.9766 367.94 40.9766C380.534 40.9766 387.262 48.0446 390.687 53.9737C394.368 60.3428 395.084 66.6162 395.113 66.8807L395.214 67.8188Z" fill="black"/>
<path fill-rule="evenodd" clip-rule="evenodd" d="M425.155 66.125H479.165C478.824 64.1662 477.78 59.4391 475.072 54.7738C470.412 46.7423 463.261 42.6703 453.819 42.6703C442.307 42.6703 433.977 46.7443 429.062 54.7793C426.196 59.462 425.378 64.2096 425.155 66.125ZM481.093 67.8188H423.348L423.383 66.9385C423.393 66.673 423.686 60.3587 427.578 53.9573C434.104 43.2283 445.449 40.9766 453.819 40.9766C466.413 40.9766 473.14 48.0446 476.566 53.9737C480.247 60.3428 480.963 66.6162 480.992 66.8807L481.093 67.8188Z" fill="black"/>
<path fill-rule="evenodd" clip-rule="evenodd" d="M281.431 40.1C267.49 40.1 256.147 54.1169 256.147 71.346C256.147 88.5756 267.49 102.592 281.431 102.592C295.373 102.592 306.716 88.5756 306.716 71.346C306.716 54.1169 295.373 40.1 281.431 40.1ZM281.431 104.286C266.556 104.286 254.453 89.5092 254.453 71.346C254.453 53.1829 266.556 38.4062 281.431 38.4062C296.307 38.4062 308.41 53.1829 308.41 71.346C308.41 89.5092 296.307 104.286 281.431 104.286Z" fill="black"/>
</g>
<defs>
<clipPath id="clip0_2674_23230">
<rect width="549.976" height="178.344" fill="white" transform="translate(0.0117188)"/>
</clipPath>
</defs>
</svg>
