<svg xmlns="http://www.w3.org/2000/svg" version="1.1" xmlns:xlink="http://www.w3.org/1999/xlink" width="1000" height="1000"><style>
    #light-icon {
      display: inline;
    }
    #dark-icon {
      display: none;
    }

    @media (prefers-color-scheme: dark) {
      #light-icon {
        display: none;
      }
      #dark-icon {
        display: inline;
      }
    }
  </style><g id="light-icon"><svg xmlns="http://www.w3.org/2000/svg" version="1.1" xmlns:xlink="http://www.w3.org/1999/xlink" width="1000" height="1000"><g><g transform="matrix(2.4813895781637716,0,0,2.4813895781637716,88.08933002481393,0)"><svg xmlns="http://www.w3.org/2000/svg" version="1.1" xmlns:xlink="http://www.w3.org/1999/xlink" width="332" height="403"><svg width="332" height="403" viewBox="0 0 332 403" fill="none" xmlns="http://www.w3.org/2000/svg">
<path fill-rule="evenodd" clip-rule="evenodd" d="M0.0168457 0.377075L0.0168488 71.4047H71.0445L71.0445 0.377075H0.0168457ZM130.372 83.0974V154.125H201.4L201.4 83.0974H130.372ZM260.972 236.377V165.349H332V236.377H260.972ZM130.372 248.562V319.59H201.4L201.4 248.562H130.372ZM0.0168488 402.31L0.0168457 331.283H71.0445L71.0445 402.31H0.0168488ZM0.0168457 165.818L0.0168488 236.846H71.0445L71.0445 165.818H0.0168457Z" fill="white"></path>
</svg></svg></g></g></svg></g><g id="dark-icon"><svg xmlns="http://www.w3.org/2000/svg" version="1.1" xmlns:xlink="http://www.w3.org/1999/xlink" width="1000" height="1000"><g><g transform="matrix(2.4813895781637716,0,0,2.4813895781637716,88.08933002481393,0)"><svg xmlns="http://www.w3.org/2000/svg" version="1.1" xmlns:xlink="http://www.w3.org/1999/xlink" width="332" height="403"><svg width="332" height="403" viewBox="0 0 332 403" fill="none" xmlns="http://www.w3.org/2000/svg">
<path fill-rule="evenodd" clip-rule="evenodd" d="M0.0168457 0.317505L0.0168488 71.3451H71.0445L71.0445 0.317505H0.0168457ZM130.372 83.0378V154.065H201.4L201.4 83.0378H130.372ZM260.972 236.317V165.29H332V236.317H260.972ZM130.372 248.503V319.53H201.4L201.4 248.503H130.372ZM0.0168488 402.251L0.0168457 331.223H71.0445L71.0445 402.251H0.0168488ZM0.0168457 165.758L0.0168488 236.786H71.0445L71.0445 165.758H0.0168457Z" fill="#181818"></path>
</svg></svg></g></g></svg></g></svg>